<svg width="512" height="512" viewBox="0 0 512 512" fill="none" xmlns="http://www.w3.org/2000/svg">
<path d="M0 16C0 7.16344 7.16344 0 16 0H496C504.837 0 512 7.16344 512 16V496C512 504.837 504.837 512 496 512H16C7.16344 512 0 504.837 0 496V16Z" fill="#33383C"/>
<path d="M379.302 301.951L373.585 280.683C365.003 282.938 356.468 285.329 347.979 287.856C343.803 273.667 339.277 259.603 334.401 245.665C310.616 178.147 278.313 113.94 238.273 54.5998L220.091 66.8625C259.098 124.666 290.56 187.216 313.713 252.995C318.526 266.682 322.969 280.49 327.04 294.418C289.968 306.491 253.786 321.144 218.76 338.269L278.945 217.522L259.338 207.75L185.73 355.308C167.491 365.237 149.595 375.856 132.044 387.163L143.931 405.596C151.918 400.449 159.989 395.442 168.143 390.577L140.392 446.221L160.015 456.009L202.3 371.298C244.139 348.956 287.848 330.305 332.929 315.56C345.052 361.565 353.148 408.538 357.125 455.947L379.051 454.083C374.944 405.094 366.559 356.558 353.993 309.03C362.346 306.545 370.782 304.185 379.302 301.951Z" fill="url(#paint0_linear_445_31095)"/>
<path fill-rule="evenodd" clip-rule="evenodd" d="M387.104 306.48L380.915 308.103C374.462 309.795 368.058 311.56 361.703 313.397C373.5 359.368 381.423 406.25 385.389 453.551L385.919 459.882L351.32 462.823L350.788 456.478C347.03 411.687 339.567 367.289 328.478 323.738C286.659 337.804 246.058 355.269 207.083 375.957L162.866 464.538L131.862 449.073L152.519 407.655C150.801 408.744 149.086 409.84 147.376 410.942L142.032 414.386L123.251 385.262L128.6 381.816C145.717 370.788 163.161 360.411 180.931 350.683L256.484 199.221L287.475 214.667L232.673 324.613C260.854 311.594 289.737 300.142 319.189 290.31C315.634 278.487 311.809 266.752 307.713 255.104C284.74 189.838 253.523 127.774 214.819 70.4201L211.26 65.1468L239.989 45.7715L243.545 51.0425C283.887 110.831 316.435 175.524 340.4 243.552L340.404 243.565C344.617 255.607 348.57 267.743 352.264 279.97C358.805 278.078 365.373 276.265 371.969 274.532L378.086 272.925L387.104 306.48ZM352.799 286.437C351.191 286.905 349.584 287.378 347.979 287.856C347.47 286.125 346.955 284.396 346.435 282.668C342.693 270.237 338.682 257.903 334.401 245.665C311.321 180.147 280.219 117.746 241.811 59.8853C240.705 58.2199 239.594 56.5582 238.476 54.9004C238.409 54.8001 238.341 54.7 238.273 54.5998L220.091 66.8625C220.176 66.9882 220.26 67.1139 220.345 67.2396C259.235 124.938 290.611 187.359 313.713 252.995C318.526 266.682 322.969 280.49 327.04 294.418C293.257 305.42 260.213 318.564 228.109 333.77C224.983 335.25 221.867 336.75 218.76 338.269L278.945 217.522L259.338 207.75L185.73 355.308C169.343 364.229 153.234 373.705 137.404 383.738C135.614 384.873 133.827 386.014 132.044 387.163L143.931 405.596C148.577 402.602 153.251 399.655 157.954 396.757C161.336 394.672 164.732 392.612 168.143 390.577L140.392 446.221L160.015 456.009L202.3 371.298C242.265 349.956 283.936 331.983 326.88 317.565C328.894 316.889 330.91 316.221 332.929 315.56C333.47 317.615 334.004 319.671 334.529 321.729C345.617 365.172 353.123 409.454 356.971 454.129C357.023 454.735 357.075 455.341 357.125 455.947L379.051 454.083C378.996 453.426 378.94 452.769 378.883 452.112C378.758 450.656 378.629 449.201 378.496 447.747C374.213 400.909 366.017 354.508 353.993 309.03C360.333 307.144 366.72 305.33 373.156 303.588C375.2 303.035 377.248 302.49 379.302 301.951L373.585 280.683C366.626 282.512 359.697 284.43 352.799 286.437Z" fill="url(#paint1_linear_445_31095)"/>
<defs>
<linearGradient id="paint0_linear_445_31095" x1="255.178" y1="45.7715" x2="255.178" y2="464.538" gradientUnits="userSpaceOnUse">
<stop stop-color="#0097CC"/>
<stop offset="0.9998" stop-color="#005B9C"/>
<stop offset="0.9999" stop-color="#0097CC"/>
</linearGradient>
<linearGradient id="paint1_linear_445_31095" x1="255.178" y1="45.7715" x2="255.178" y2="464.538" gradientUnits="userSpaceOnUse">
<stop stop-color="#0097CC"/>
<stop offset="0.9998" stop-color="#005B9C"/>
<stop offset="0.9999" stop-color="#0097CC"/>
</linearGradient>
</defs>
</svg>
