<svg width="32" height="32" viewBox="0 0 32 32" fill="none" xmlns="http://www.w3.org/2000/svg">
<path d="M22 17H17V22C17 22.55 16.55 23 16 23C15.45 23 15 22.55 15 22V17H10C9.45 17 9 16.55 9 16C9 15.45 9.45 15 10 15H15V10C15 9.45 15.45 9 16 9C16.55 9 17 9.45 17 10V15H22C22.55 15 23 15.45 23 16C23 16.55 22.55 17 22 17Z" fill="url(#paint0_linear_18_972)"/>
<rect x="1" y="1" width="30" height="30" rx="7" stroke="url(#paint1_linear_18_972)" stroke-width="2"/>
<defs>
<linearGradient id="paint0_linear_18_972" x1="16.9663" y1="9" x2="16.9663" y2="23" gradientUnits="userSpaceOnUse">
<stop stop-color="#D375FF"/>
<stop offset="0.802083" stop-color="#798FFF"/>
</linearGradient>
<linearGradient id="paint1_linear_18_972" x1="18.2088" y1="0" x2="18.2088" y2="32" gradientUnits="userSpaceOnUse">
<stop stop-color="#D375FF"/>
<stop offset="0.802083" stop-color="#798FFF"/>
</linearGradient>
</defs>
</svg>
