<svg width="40" height="40" viewBox="0 0 40 40" fill="none" xmlns="http://www.w3.org/2000/svg">
<path d="M0 8C0 3.58172 3.58172 0 8 0H32C36.4183 0 40 3.58172 40 8V32C40 36.4183 36.4183 40 32 40H8C3.58172 40 0 36.4183 0 32V8Z" fill="#8E918F"/>
<path d="M11 25.46V28.5C11 28.78 11.22 29 11.5 29H14.54C14.67 29 14.8 28.95 14.89 28.85L25.81 17.94L22.06 14.19L11.15 25.1C11.05 25.2 11 25.32 11 25.46ZM28.71 15.04C29.1 14.65 29.1 14.02 28.71 13.63L26.37 11.29C25.98 10.9 25.35 10.9 24.96 11.29L23.13 13.12L26.88 16.87L28.71 15.04Z" fill="#1F1F1F"/>
</svg>
