<svg width="40" height="40" viewBox="0 0 40 40" fill="none" xmlns="http://www.w3.org/2000/svg">
<path d="M0 8C0 3.58172 3.58172 0 8 0H32C36.4183 0 40 3.58172 40 8V32C40 36.4183 36.4183 40 32 40H8C3.58172 40 0 36.4183 0 32V8Z" fill="#8E918F"/>
<path d="M14 27C14 28.1 14.9 29 16 29H24C25.1 29 26 28.1 26 27V17C26 15.9 25.1 15 24 15H16C14.9 15 14 15.9 14 17V27ZM26 12H23.5L22.79 11.29C22.61 11.11 22.35 11 22.09 11H17.91C17.65 11 17.39 11.11 17.21 11.29L16.5 12H14C13.45 12 13 12.45 13 13C13 13.55 13.45 14 14 14H26C26.55 14 27 13.55 27 13C27 12.45 26.55 12 26 12Z" fill="#1F1F1F"/>
</svg>
