<svg width="128" height="128" viewBox="0 0 128 128" fill="none" xmlns="http://www.w3.org/2000/svg">
<rect width="128" height="128" rx="8" fill="#1C1B1F"/>
<path fill-rule="evenodd" clip-rule="evenodd" d="M63.953 76.9739C82.7907 76.9739 98.0616 61.703 98.0616 42.8653C98.0616 40.5583 97.8325 38.3047 97.3959 36.1261H76.7896V49.6503H83.4387C80.6346 57.6851 72.9899 63.4496 63.9989 63.4496C52.6305 63.4496 43.4145 54.2337 43.4145 42.8653C43.4145 31.4969 52.6305 22.281 63.9989 22.281V8.75677H63.953C45.1154 8.75677 29.8445 24.0277 29.8445 42.8653C29.8445 61.703 45.1154 76.9739 63.953 76.9739Z" fill="url(#paint0_linear_92_1392)"/>
<path d="M62.2593 8.79841C47.6134 11.0687 36.4028 23.7324 36.4028 39.0145C36.4028 55.9026 50.0933 69.593 66.9813 69.593C83.8693 69.593 97.5598 55.9026 97.5598 39.0145C97.5598 38.0405 97.5143 37.0771 97.4252 36.1263H76.7921V49.6505H83.4413C80.6372 57.6853 72.9925 63.4498 64.0014 63.4498C52.633 63.4498 43.4171 54.2339 43.4171 42.8655C43.4171 32.1151 51.6582 23.2895 62.1676 22.3618C62.7718 22.3084 63.3834 22.2812 64.0014 22.2812V8.75696H63.9556C63.3868 8.75696 62.8212 8.77089 62.2593 8.79841Z" fill="url(#paint1_linear_92_1392)"/>
<path d="M83.9429 8.66547H97.5588V22.2814H83.9429V8.66547Z" fill="url(#paint2_linear_92_1392)"/>
<path d="M97.5588 22.2814H83.9429L76.8599 29.3415H89.9715L97.5588 22.2814Z" fill="url(#paint3_linear_92_1392)"/>
<path d="M83.9429 22.2814V8.66547L76.8599 16.2299V29.3415L83.9429 22.2814Z" fill="url(#paint4_linear_92_1392)"/>
<path d="M83.9426 22.2814H97.5585V8.66547H83.9426V22.2814Z" fill="url(#paint5_linear_92_1392)"/>
<path d="M96.437 114.032C96.4684 113.288 96.2426 112.555 95.7972 111.955C95.5895 111.707 95.3261 111.511 95.0283 111.383C94.7304 111.254 94.4065 111.197 94.0826 111.216C93.7363 111.213 93.3928 111.278 93.0717 111.408C92.7625 111.536 92.4835 111.727 92.2527 111.968C92.0005 112.225 91.8006 112.528 91.6641 112.86C91.5049 113.235 91.3973 113.629 91.3442 114.032H96.437ZM91.3186 114.975C91.3204 115.455 91.3937 115.931 91.5361 116.389C91.6495 116.783 91.8458 117.148 92.112 117.46C92.3653 117.746 92.6802 117.973 93.0333 118.122C93.4387 118.288 93.8749 118.366 94.3129 118.351C95.2949 118.343 96.2456 118.006 97.0129 117.396V118.453C96.1311 119.05 95.0843 119.357 94.0186 119.333C93.4782 119.342 92.9418 119.238 92.4447 119.027C91.9798 118.838 91.5673 118.541 91.2418 118.16C90.8915 117.746 90.6302 117.265 90.4741 116.746C90.2864 116.127 90.1957 115.482 90.2053 114.835C90.1944 114.223 90.2941 113.615 90.4997 113.038C90.6749 112.52 90.9485 112.04 91.3058 111.624C91.6615 111.224 92.0974 110.903 92.5854 110.681C93.0632 110.472 93.5796 110.364 94.1018 110.364C94.6239 110.364 95.1403 110.472 95.6181 110.681C96.0398 110.864 96.4091 111.149 96.693 111.51C96.9977 111.886 97.224 112.319 97.3584 112.784C97.5188 113.343 97.5964 113.922 97.5887 114.504V115.039L91.3186 114.975ZM86.584 119.078H85.5604L82.259 110.503H83.449L85.8291 117.039C85.9599 117.376 86.0542 117.727 86.1106 118.084C86.1721 117.737 86.262 117.397 86.3793 117.065L88.8362 110.503H89.9878L86.584 119.078ZM80.2884 119.078V110.503H81.376V119.078H80.2884ZM80.813 108.337C80.6126 108.336 80.4201 108.259 80.2756 108.12C80.2002 108.048 80.1408 107.961 80.1012 107.864C80.0615 107.768 80.0425 107.664 80.0452 107.56C80.042 107.459 80.061 107.359 80.1008 107.267C80.1405 107.174 80.2002 107.092 80.2756 107.025C80.4201 106.886 80.6126 106.809 80.813 106.808C80.9145 106.789 81.0187 106.789 81.1201 106.808C81.2137 106.844 81.3004 106.895 81.376 106.961C81.4387 107.036 81.4944 107.117 81.5424 107.203C81.5847 107.299 81.6065 107.404 81.6065 107.509C81.6065 107.614 81.5847 107.718 81.5424 107.815C81.5101 107.909 81.4525 107.993 81.376 108.057C81.3045 108.131 81.2169 108.187 81.1201 108.222C81.0272 108.282 80.9225 108.321 80.813 108.337ZM79.1239 118.976C78.7453 119.16 78.3296 119.256 77.9083 119.256C76.5263 119.256 75.8225 118.453 75.8225 116.861V111.446H74.3254V110.503H75.8353V108.35L76.923 107.993V110.541H79.1367V111.484H76.9742V116.721C76.9414 117.164 77.0393 117.606 77.2557 117.995C77.3753 118.131 77.5261 118.237 77.6953 118.304C77.8645 118.37 78.0472 118.395 78.2282 118.377C78.5718 118.374 78.9063 118.267 79.1879 118.071L79.1239 118.976ZM73.4808 118.67C72.7712 119.069 71.9669 119.272 71.1519 119.256C70.5805 119.275 70.0122 119.166 69.4884 118.938C69.0039 118.727 68.5683 118.419 68.2088 118.033C67.8567 117.63 67.5872 117.163 67.4155 116.657C67.2206 116.105 67.1253 115.522 67.134 114.937C67.1317 114.318 67.2311 113.702 67.4283 113.115C67.6001 112.557 67.8885 112.042 68.2744 111.602C68.6603 111.163 69.1351 110.81 69.6676 110.567C70.2572 110.314 70.8939 110.188 71.5358 110.197C72.2119 110.188 72.8813 110.332 73.4936 110.618V111.752C72.8886 111.346 72.1758 111.128 71.4463 111.127C70.9775 111.12 70.5135 111.22 70.0899 111.42C69.6965 111.603 69.3506 111.873 69.079 112.21C68.7936 112.551 68.5803 112.945 68.452 113.37C68.3049 113.848 68.2358 114.347 68.2472 114.848C68.2526 115.278 68.3128 115.706 68.4264 116.122C68.5433 116.523 68.7342 116.899 68.9894 117.23C69.2417 117.554 69.5658 117.816 69.9363 117.995C70.3601 118.193 70.8247 118.289 71.2927 118.275C72.0813 118.285 72.8511 118.034 73.4808 117.562V118.67ZM62.4762 114.848C62.1392 114.893 61.8058 114.961 61.4781 115.052C61.2341 115.127 61.0047 115.243 60.7999 115.396C60.6242 115.532 60.4875 115.712 60.4032 115.918C60.3161 116.168 60.2728 116.431 60.2752 116.695C60.2708 116.914 60.3144 117.132 60.4032 117.332C60.4749 117.528 60.5935 117.703 60.7487 117.842C60.9169 117.989 61.1126 118.101 61.3245 118.173C61.5679 118.253 61.8232 118.292 62.0795 118.288C62.4413 118.296 62.8002 118.222 63.1288 118.071C63.4457 117.933 63.7292 117.729 63.9605 117.472C64.1979 117.202 64.3843 116.891 64.5108 116.555C64.6408 116.178 64.7057 115.782 64.7027 115.383V114.593L62.4762 114.848ZM64.7027 119.014V117.485C64.4413 118.006 64.0434 118.446 63.5511 118.759C63.053 119.057 62.4815 119.212 61.9004 119.205C61.5177 119.208 61.1372 119.148 60.7743 119.027C60.4604 118.923 60.1724 118.754 59.9298 118.53C59.697 118.312 59.5137 118.047 59.3923 117.753C59.2623 117.438 59.197 117.1 59.2004 116.759C59.1837 116.415 59.2401 116.072 59.3658 115.751C59.4914 115.431 59.6836 115.14 59.9298 114.899C60.5422 114.37 61.3097 114.053 62.1179 113.994L64.6771 113.612C64.6771 111.968 64.0373 111.14 62.7449 111.14C61.7078 111.152 60.711 111.542 59.9425 112.236V111.064C60.1351 110.929 60.3409 110.813 60.5568 110.72C60.7904 110.617 61.0297 110.528 61.2733 110.452C61.5302 110.379 61.7908 110.32 62.0539 110.274C62.318 110.255 62.5831 110.255 62.8473 110.274C63.2473 110.247 63.6486 110.306 64.0238 110.446C64.3991 110.587 64.7397 110.806 65.0226 111.089C65.5684 111.764 65.8339 112.621 65.7648 113.484V119.065L64.7027 119.014ZM58.8037 111.599C58.5198 111.4 58.1776 111.302 57.8312 111.318C57.5702 111.316 57.3121 111.373 57.0762 111.484C56.8556 111.592 56.6596 111.744 56.5004 111.93C56.3283 112.12 56.186 112.335 56.0781 112.567C55.9599 112.808 55.8656 113.06 55.7966 113.319C55.727 113.582 55.6757 113.851 55.6431 114.121C55.6431 114.385 55.6431 114.64 55.6431 114.886V119.078H54.5682V110.503H55.6431V112.299C55.7348 112.004 55.8638 111.722 56.0269 111.459C56.1677 111.221 56.3497 111.009 56.5644 110.834C56.9521 110.491 57.4529 110.3 57.9719 110.299C58.1294 110.285 58.2879 110.285 58.4454 110.299C58.5725 110.32 58.6969 110.354 58.8165 110.401L58.8037 111.599ZM51.9194 114.032C51.9507 113.288 51.7249 112.555 51.2796 111.955C51.0705 111.709 50.8069 111.514 50.5094 111.385C50.2119 111.257 49.8886 111.199 49.5649 111.216C49.2186 111.213 48.8751 111.278 48.554 111.408C48.2448 111.536 47.9659 111.727 47.7351 111.968C47.4828 112.225 47.2829 112.528 47.1464 112.86C46.9872 113.235 46.8796 113.629 46.8265 114.032H51.9194ZM46.8009 114.975C46.8027 115.455 46.876 115.931 47.0185 116.389C47.1318 116.783 47.3281 117.148 47.5943 117.46C47.8477 117.746 48.1625 117.973 48.5156 118.122C48.9211 118.288 49.3572 118.366 49.7952 118.351C50.7769 118.341 51.727 118.004 52.4952 117.396V118.453C51.6134 119.05 50.5666 119.357 49.5009 119.333C48.9605 119.342 48.4242 119.238 47.927 119.027C47.4622 118.838 47.0497 118.541 46.7242 118.16C46.3739 117.746 46.1126 117.265 45.9564 116.746C45.7687 116.127 45.6781 115.482 45.6877 114.835C45.6767 114.223 45.7764 113.615 45.982 113.038C46.1572 112.52 46.4309 112.04 46.7881 111.624C47.1438 111.224 47.5797 110.903 48.0678 110.681C48.5456 110.472 49.062 110.364 49.5841 110.364C50.1062 110.364 50.6226 110.472 51.1004 110.681C51.5221 110.864 51.8915 111.149 52.1753 111.51C52.4801 111.886 52.7063 112.319 52.8407 112.784C52.9964 113.343 53.0697 113.923 53.0582 114.504V115.039L46.8009 114.975ZM45.4446 118.976C45.0704 119.16 44.6589 119.256 44.2417 119.256C42.8469 119.256 42.156 118.453 42.156 116.861V111.446H40.646V110.503H42.156V108.35L43.2436 107.993V110.541H45.4446V111.484H43.2436V116.721C43.2046 117.164 43.3028 117.609 43.5251 117.995C43.6428 118.13 43.7914 118.235 43.9583 118.302C44.1253 118.368 44.3059 118.394 44.4848 118.377C44.8284 118.374 45.163 118.267 45.4446 118.071V118.976ZM39.0465 119.078V114.134C39.0465 112.185 38.3427 111.216 36.9223 111.216C36.5639 111.214 36.2095 111.292 35.8859 111.446C35.5696 111.585 35.2894 111.794 35.0669 112.057C34.8275 112.331 34.6409 112.646 34.5167 112.987C34.3867 113.365 34.3218 113.761 34.3247 114.16V119.078H33.2499V110.503H34.3375V111.981C34.613 111.441 35.0406 110.994 35.568 110.693C36.0953 110.392 36.6994 110.25 37.3062 110.286C37.7141 110.256 38.1233 110.324 38.4995 110.483C38.8758 110.643 39.2082 110.89 39.4688 111.204C40.0076 111.974 40.2691 112.904 40.2109 113.841V119.078H39.0465ZM30.6906 119.078V110.503H31.7783V119.078H30.6906ZM31.2281 108.337C31.0277 108.336 30.8352 108.259 30.6906 108.12C30.6153 108.048 30.5559 107.961 30.5163 107.864C30.4766 107.768 30.4576 107.664 30.4603 107.56C30.4571 107.459 30.476 107.359 30.5158 107.267C30.5556 107.174 30.6153 107.092 30.6906 107.025C30.8352 106.886 31.0277 106.809 31.2281 106.808C31.3295 106.789 31.4337 106.789 31.5352 106.808C31.6265 106.841 31.7094 106.893 31.7783 106.961C31.849 107.033 31.9093 107.114 31.9575 107.203C31.9997 107.299 32.0216 107.404 32.0216 107.509C32.0216 107.614 31.9997 107.718 31.9575 107.815C31.9251 107.909 31.8676 107.993 31.7911 108.057C31.7196 108.131 31.632 108.187 31.5352 108.222C31.4461 108.28 31.3459 108.319 31.2409 108.337H31.2281Z" fill="url(#paint6_linear_92_1392)"/>
<path d="M86.9823 90.08H80.5715V94.756H86.4705V98.2216H80.5715V105.611H76.4639V86.5889H86.9823V90.08Z" fill="url(#paint7_linear_92_1392)"/>
<path d="M45.7021 104.337C43.6865 105.465 41.397 106.017 39.0865 105.93C37.8236 105.991 36.5612 105.797 35.3758 105.359C34.1903 104.921 33.1063 104.249 32.1894 103.382C31.3114 102.448 30.6321 101.347 30.1923 100.145C29.7525 98.9425 29.5613 97.6644 29.6301 96.3869C29.5765 95.0458 29.7935 93.7076 30.2682 92.4515C30.743 91.1953 31.4659 90.0467 32.3941 89.0735C33.3569 88.1203 34.5081 87.3767 35.7747 86.8898C37.0412 86.4029 38.3956 86.1833 39.7519 86.2449C41.4954 86.2106 43.2303 86.4956 44.8703 87.0859V91.0993C43.3125 90.2186 41.5427 89.7781 39.7519 89.8252C38.9771 89.7972 38.2054 89.9364 37.4898 90.2333C36.7742 90.5302 36.1315 90.9778 35.6059 91.5453C34.4882 92.8214 33.9104 94.479 33.9936 96.1703C33.8937 97.8064 34.404 99.4217 35.4268 100.706C35.9123 101.234 36.5069 101.651 37.1695 101.928C37.8322 102.205 38.5473 102.336 39.2656 102.312C40.0689 102.343 40.8691 102.195 41.6073 101.878V98.1961H37.9732V94.7688H45.6509L45.7021 104.337Z" fill="url(#paint8_linear_92_1392)"/>
<path d="M70.5777 98.0942L68.6199 91.7236C68.4648 91.1652 68.3619 90.5936 68.3128 90.0163H68.2104C68.1713 90.5782 68.0683 91.1339 67.9033 91.6726L65.9199 98.1197L70.5777 98.0942ZM77.27 105.611H72.8298L71.5502 101.381H65.0754L63.7957 105.611H59.3427L65.9711 86.5889H70.8336L77.27 105.611Z" fill="url(#paint9_linear_92_1392)"/>
<path d="M50.8973 89.7997V95.1H52.6631C53.0534 95.1174 53.4432 95.0552 53.8085 94.9172C54.1738 94.7791 54.5069 94.5682 54.7873 94.2973C55.0511 94.0359 55.2587 93.7238 55.3973 93.3798C55.5359 93.0359 55.6026 92.6674 55.5934 92.297C55.5934 90.6279 54.6465 89.7487 52.7399 89.7487L50.8973 89.7997ZM62.0683 105.611H57.3593L54.5314 100.719C54.3096 100.354 54.1048 100.022 53.9171 99.725C53.7472 99.4551 53.55 99.2032 53.3285 98.9733C53.1474 98.779 52.9356 98.6155 52.7015 98.4891C52.486 98.3862 52.2496 98.3339 52.0105 98.3363H50.8973V105.611H46.8025V86.5889H53.2901C57.7176 86.5889 59.9185 88.3217 59.9185 91.7618C59.9291 92.3858 59.8295 93.0069 59.6242 93.5966C59.4391 94.1482 59.1622 94.665 58.8053 95.1255C58.4442 95.5781 58.0121 95.9696 57.5256 96.2849C57.0092 96.6231 56.4439 96.8809 55.8494 97.0494C56.1307 97.1466 56.3943 97.2886 56.6299 97.4699C56.8959 97.6831 57.1441 97.9175 57.3721 98.1706C57.6152 98.4414 57.8416 98.7264 58.0503 99.0243C58.2678 99.3301 58.4598 99.6358 58.6389 99.9289L62.0683 105.611Z" fill="url(#paint10_linear_92_1392)"/>
<path d="M98.3837 90.08H91.9728V94.756H97.8718V98.2216H91.9728V105.611H87.8653V86.5889H98.3837V90.08Z" fill="url(#paint11_linear_92_1392)"/>
<defs>
<linearGradient id="paint0_linear_92_1392" x1="68.6616" y1="8.75677" x2="68.6616" y2="76.9739" gradientUnits="userSpaceOnUse">
<stop stop-color="#D375FF"/>
<stop offset="1" stop-color="#798FFF"/>
</linearGradient>
<linearGradient id="paint1_linear_92_1392" x1="71.2026" y1="8.75696" x2="71.2026" y2="69.593" gradientUnits="userSpaceOnUse">
<stop stop-color="#D375FF"/>
<stop offset="1" stop-color="#798FFF"/>
</linearGradient>
<linearGradient id="paint2_linear_92_1392" x1="88.638" y1="8.66547" x2="88.638" y2="29.3415" gradientUnits="userSpaceOnUse">
<stop stop-color="#D375FF"/>
<stop offset="1" stop-color="#798FFF"/>
</linearGradient>
<linearGradient id="paint3_linear_92_1392" x1="88.638" y1="8.66547" x2="88.638" y2="29.3415" gradientUnits="userSpaceOnUse">
<stop stop-color="#D375FF"/>
<stop offset="1" stop-color="#798FFF"/>
</linearGradient>
<linearGradient id="paint4_linear_92_1392" x1="88.638" y1="8.66547" x2="88.638" y2="29.3415" gradientUnits="userSpaceOnUse">
<stop stop-color="#D375FF"/>
<stop offset="1" stop-color="#798FFF"/>
</linearGradient>
<linearGradient id="paint5_linear_92_1392" x1="91.6904" y1="8.66547" x2="91.6904" y2="22.2814" gradientUnits="userSpaceOnUse">
<stop stop-color="#D375FF"/>
<stop offset="1" stop-color="#798FFF"/>
</linearGradient>
<linearGradient id="paint6_linear_92_1392" x1="68.6581" y1="106.794" x2="68.6581" y2="119.334" gradientUnits="userSpaceOnUse">
<stop stop-color="#D375FF"/>
<stop offset="1" stop-color="#798FFF"/>
</linearGradient>
<linearGradient id="paint7_linear_92_1392" x1="68.7466" y1="86.2348" x2="68.7466" y2="105.941" gradientUnits="userSpaceOnUse">
<stop stop-color="#D375FF"/>
<stop offset="1" stop-color="#798FFF"/>
</linearGradient>
<linearGradient id="paint8_linear_92_1392" x1="68.7466" y1="86.2348" x2="68.7466" y2="105.941" gradientUnits="userSpaceOnUse">
<stop stop-color="#D375FF"/>
<stop offset="1" stop-color="#798FFF"/>
</linearGradient>
<linearGradient id="paint9_linear_92_1392" x1="68.7466" y1="86.2348" x2="68.7466" y2="105.941" gradientUnits="userSpaceOnUse">
<stop stop-color="#D375FF"/>
<stop offset="1" stop-color="#798FFF"/>
</linearGradient>
<linearGradient id="paint10_linear_92_1392" x1="68.7466" y1="86.2348" x2="68.7466" y2="105.941" gradientUnits="userSpaceOnUse">
<stop stop-color="#D375FF"/>
<stop offset="1" stop-color="#798FFF"/>
</linearGradient>
<linearGradient id="paint11_linear_92_1392" x1="68.7466" y1="86.2348" x2="68.7466" y2="105.941" gradientUnits="userSpaceOnUse">
<stop stop-color="#D375FF"/>
<stop offset="1" stop-color="#798FFF"/>
</linearGradient>
</defs>
</svg>
