<svg width="32" height="50" viewBox="0 0 32 50" fill="none" xmlns="http://www.w3.org/2000/svg">
<path fill-rule="evenodd" clip-rule="evenodd" d="M15.5131 30.8615C24.0239 30.8615 30.9232 23.9622 30.9232 15.4514C30.9232 14.4091 30.8198 13.391 30.6225 12.4067H21.3126V18.5169H24.3167C23.0498 22.147 19.596 24.7513 15.5338 24.7513C10.3976 24.7513 6.23393 20.5876 6.23393 15.4514C6.23393 10.3152 10.3976 6.15151 15.5338 6.15151V0.0413208H15.5131C7.00237 0.0413208 0.103027 6.94067 0.103027 15.4514C0.103027 23.9622 7.00237 30.8615 15.5131 30.8615Z" fill="url(#paint0_linear_3_469)"/>
<path d="M14.748 0.0601114C8.13104 1.08581 3.06616 6.80724 3.06616 13.7116C3.06616 21.3416 9.25146 27.5269 16.8814 27.5269C24.5114 27.5269 30.6967 21.3416 30.6967 13.7116C30.6967 13.2716 30.6761 12.8363 30.6358 12.4068H21.3139V18.5169H24.318C23.0511 22.147 19.5972 24.7514 15.5351 24.7514C10.3989 24.7514 6.23518 20.5877 6.23518 15.4515C6.23518 10.5945 9.9585 6.60715 14.7066 6.18798C14.9795 6.16389 15.2559 6.15157 15.5351 6.15157V0.0413818H15.5144C15.2574 0.0413818 15.0019 0.0476768 14.748 0.0601114Z" fill="url(#paint1_linear_3_469)"/>
<path d="M24.5446 6.10352e-05H30.6962V6.15168H24.5446V6.10352e-05Z" fill="url(#paint2_linear_3_469)"/>
<path d="M30.6962 6.15168H24.5446L21.3445 9.3414H27.2683L30.6962 6.15168Z" fill="url(#paint3_linear_3_469)"/>
<path d="M24.5446 6.15168V6.10352e-05L21.3445 3.41763V9.3414L24.5446 6.15168Z" fill="url(#paint4_linear_3_469)"/>
<path d="M24.5444 6.15168H30.696V6.10352e-05H24.5444V6.15168Z" fill="url(#paint5_linear_3_469)"/>
<path d="M30.1893 47.6044C30.2035 47.2679 30.1014 46.9368 29.9002 46.6661C29.8064 46.554 29.6874 46.4653 29.5528 46.4073C29.4183 46.3493 29.2719 46.3236 29.1256 46.3322C28.9691 46.3309 28.8139 46.3602 28.6688 46.4186C28.5291 46.4764 28.4031 46.5627 28.2988 46.6719C28.1849 46.7878 28.0946 46.9246 28.0329 47.0748C27.961 47.244 27.9123 47.4222 27.8884 47.6044H30.1893ZM27.8768 48.0304C27.8776 48.247 27.9107 48.4624 27.9751 48.6693C28.0263 48.8471 28.115 49.0119 28.2352 49.1529C28.3497 49.2824 28.492 49.3847 28.6515 49.4522C28.8347 49.5271 29.0317 49.5624 29.2296 49.5558C29.6733 49.5518 30.1028 49.3998 30.4495 49.1241V49.6019C30.0511 49.8713 29.5781 50.0101 29.0967 49.999C28.8525 50.0034 28.6102 49.9563 28.3856 49.8609C28.1756 49.7756 27.9892 49.6414 27.8421 49.4695C27.6839 49.2823 27.5658 49.0649 27.4953 48.8305C27.4104 48.5506 27.3695 48.2594 27.3738 47.967C27.3689 47.6907 27.4139 47.4158 27.5068 47.1554C27.586 46.9211 27.7096 46.7042 27.871 46.5164C28.0317 46.3358 28.2287 46.1907 28.4492 46.0905C28.665 45.9958 28.8983 45.9469 29.1342 45.9469C29.3701 45.9469 29.6034 45.9958 29.8193 46.0905C30.0098 46.1732 30.1767 46.3018 30.3049 46.4646C30.4426 46.6347 30.5448 46.8304 30.6056 47.0403C30.678 47.2929 30.7131 47.5547 30.7096 47.8174V48.0591L27.8768 48.0304ZM25.7378 49.8839H25.2753L23.7837 46.0099H24.3214L25.3967 48.9629C25.4558 49.1153 25.4984 49.2735 25.5239 49.4349C25.5517 49.2784 25.5923 49.1244 25.6453 48.9744L26.7553 46.0099H27.2756L25.7378 49.8839ZM22.8934 49.8839V46.0099H23.3848V49.8839H22.8934ZM23.1304 45.0313C23.0399 45.0309 22.9529 44.9959 22.8876 44.9334C22.8536 44.9007 22.8267 44.8613 22.8088 44.8177C22.7909 44.7741 22.7823 44.7272 22.7835 44.6801C22.7821 44.6347 22.7906 44.5895 22.8086 44.5478C22.8266 44.506 22.8536 44.4687 22.8876 44.4384C22.9529 44.3759 23.0399 44.3409 23.1304 44.3405C23.1763 44.3318 23.2233 44.3318 23.2692 44.3405C23.3115 44.3566 23.3506 44.38 23.3848 44.4096C23.4131 44.4437 23.4383 44.4803 23.4599 44.519C23.479 44.5625 23.4889 44.6096 23.4889 44.6571C23.4889 44.7047 23.479 44.7517 23.4599 44.7953C23.4453 44.8379 23.4194 44.8757 23.3848 44.9046C23.3525 44.938 23.3129 44.9636 23.2692 44.9795C23.2272 45.0065 23.1799 45.0242 23.1304 45.0313ZM22.3673 49.8379C22.1962 49.921 22.0084 49.9643 21.8181 49.9645C21.1937 49.9645 20.8757 49.6019 20.8757 48.8823V46.4358H20.1993V46.0099H20.8815V45.037L21.3729 44.8759V46.0271H22.3731V46.4531H21.396V48.819C21.3812 49.0191 21.4255 49.2192 21.5232 49.3946C21.5773 49.4563 21.6454 49.5041 21.7218 49.5341C21.7983 49.5642 21.8808 49.5756 21.9626 49.5673C22.1178 49.5659 22.269 49.5177 22.3962 49.4292L22.3673 49.8379ZM19.8178 49.6997C19.4972 49.8801 19.1338 49.9716 18.7656 49.9645C18.5074 49.9729 18.2507 49.9237 18.014 49.8206C17.7951 49.7255 17.5983 49.5863 17.4359 49.4119C17.2768 49.23 17.155 49.0187 17.0775 48.7902C16.9894 48.5407 16.9464 48.2776 16.9503 48.0131C16.9493 47.7333 16.9942 47.4553 17.0832 47.1899C17.1609 46.9379 17.2912 46.705 17.4655 46.5066C17.6399 46.3082 17.8544 46.1487 18.095 46.0387C18.3614 45.9244 18.649 45.8675 18.939 45.8717C19.2445 45.8677 19.5469 45.9327 19.8236 46.0617V46.574C19.5502 46.3906 19.2282 46.2924 18.8986 46.2919C18.6868 46.2887 18.4771 46.334 18.2857 46.4243C18.108 46.5068 17.9517 46.6289 17.829 46.7812C17.7001 46.935 17.6037 47.1132 17.5457 47.3051C17.4793 47.5213 17.4481 47.7467 17.4532 47.9728C17.4557 48.1673 17.4829 48.3607 17.5342 48.5484C17.587 48.7297 17.6733 48.8995 17.7886 49.0492C17.9026 49.1956 18.049 49.3138 18.2164 49.3946C18.4078 49.4842 18.6178 49.5275 18.8292 49.5213C19.1855 49.5259 19.5332 49.4125 19.8178 49.1989V49.6997ZM14.8459 47.9728C14.6937 47.9934 14.543 48.0241 14.395 48.0649C14.2847 48.099 14.1811 48.1516 14.0886 48.2203C14.0092 48.2821 13.9474 48.3635 13.9094 48.4563C13.87 48.5692 13.8504 48.688 13.8515 48.8075C13.8495 48.9065 13.8692 49.0047 13.9094 49.0953C13.9417 49.1836 13.9953 49.2626 14.0654 49.3256C14.1414 49.392 14.2298 49.4428 14.3256 49.4752C14.4356 49.5115 14.5509 49.529 14.6667 49.527C14.8301 49.5309 14.9923 49.4974 15.1408 49.4292C15.2839 49.3666 15.412 49.2744 15.5165 49.1586C15.6238 49.0365 15.708 48.8961 15.7651 48.7442C15.8239 48.5738 15.8532 48.3947 15.8518 48.2146V47.8577L14.8459 47.9728ZM15.8518 49.8551V49.1644C15.7338 49.3995 15.554 49.5984 15.3315 49.74C15.1065 49.8747 14.8483 49.9445 14.5858 49.9415C14.4129 49.9428 14.241 49.9155 14.077 49.8609C13.9352 49.814 13.8051 49.7375 13.6954 49.6364C13.5903 49.5379 13.5075 49.4182 13.4526 49.2853C13.3939 49.1429 13.3644 48.9902 13.3659 48.8363C13.3584 48.681 13.3838 48.5259 13.4406 48.381C13.4974 48.2362 13.5842 48.105 13.6954 47.9958C13.9722 47.7571 14.3189 47.6138 14.684 47.5871L15.8403 47.4144C15.8403 46.6719 15.5512 46.2977 14.9673 46.2977C14.4987 46.3033 14.0484 46.4794 13.7012 46.7927V46.2632C13.7882 46.2022 13.8812 46.1501 13.9787 46.1077C14.0843 46.0615 14.1924 46.0211 14.3025 45.9868C14.4185 45.9539 14.5363 45.927 14.6551 45.9063C14.7745 45.8979 14.8942 45.8979 15.0136 45.9063C15.1943 45.8941 15.3756 45.9207 15.5451 45.9842C15.7147 46.0478 15.8686 46.1468 15.9964 46.2747C16.2429 46.5795 16.3629 46.9667 16.3317 47.3569V49.8782L15.8518 49.8551ZM13.1867 46.5049C13.0584 46.4153 12.9038 46.3707 12.7473 46.3783C12.6294 46.3772 12.5128 46.4028 12.4062 46.4531C12.3066 46.5018 12.218 46.5704 12.1461 46.6546C12.0683 46.7404 12.004 46.8375 11.9553 46.9424C11.9019 47.0512 11.8593 47.165 11.8281 47.282C11.7966 47.4012 11.7735 47.5224 11.7587 47.6447C11.7587 47.7637 11.7587 47.8788 11.7587 47.9901V49.8839H11.2731V46.0099H11.7587V46.8215C11.8002 46.6881 11.8585 46.5604 11.9322 46.4416C11.9958 46.3341 12.078 46.2386 12.175 46.1595C12.3502 46.0043 12.5764 45.9183 12.8109 45.9178C12.8821 45.9113 12.9537 45.9113 13.0248 45.9178C13.0822 45.927 13.1384 45.9424 13.1925 45.9638L13.1867 46.5049ZM10.0764 47.6044C10.0905 47.2679 9.98853 46.9368 9.78733 46.6661C9.69287 46.5547 9.57377 46.4665 9.43936 46.4086C9.30496 46.3507 9.1589 46.3245 9.01265 46.3322C8.85619 46.3309 8.70099 46.3602 8.55593 46.4186C8.41623 46.4764 8.29021 46.5627 8.18593 46.6719C8.07196 46.7878 7.98165 46.9246 7.91999 47.0748C7.84805 47.244 7.79944 47.4222 7.77546 47.6044H10.0764ZM7.7639 48.0304C7.7647 48.247 7.79782 48.4624 7.86218 48.6693C7.9134 48.8471 8.00209 49.0119 8.12234 49.1529C8.2368 49.2824 8.37906 49.3847 8.53858 49.4522C8.72176 49.5271 8.91881 49.5624 9.11671 49.5558C9.56022 49.551 9.98946 49.399 10.3365 49.1241V49.6019C9.93815 49.8713 9.46521 50.0101 8.98374 49.999C8.73958 50.0034 8.49727 49.9563 8.27265 49.8609C8.06264 49.7756 7.87627 49.6414 7.72921 49.4695C7.57095 49.2823 7.4529 49.0649 7.38234 48.8305C7.29753 48.5506 7.25658 48.2594 7.26093 47.967C7.25598 47.6907 7.30102 47.4158 7.3939 47.1554C7.47306 46.9211 7.59671 46.7042 7.75812 46.5164C7.91882 46.3358 8.11576 46.1907 8.33624 46.0905C8.55212 45.9958 8.78543 45.9469 9.02132 45.9469C9.25721 45.9469 9.49051 45.9958 9.70639 46.0905C9.8969 46.1732 10.0638 46.3018 10.192 46.4646C10.3297 46.6347 10.4319 46.8304 10.4926 47.0403C10.563 47.2932 10.5961 47.555 10.5909 47.8174V48.0591L7.7639 48.0304ZM7.15109 49.8379C6.98206 49.9209 6.79614 49.9643 6.60765 49.9645C5.9775 49.9645 5.66531 49.6019 5.66531 48.8823V46.4358H4.98313V46.0099H5.66531V45.037L6.15672 44.8759V46.0271H7.15109V46.4531H6.15672V48.819C6.13907 49.0193 6.18345 49.2202 6.2839 49.3946C6.33708 49.4558 6.40419 49.5034 6.47962 49.5334C6.55506 49.5635 6.63662 49.5751 6.7175 49.5673C6.87272 49.5659 7.02388 49.5177 7.15109 49.4292V49.8379ZM4.26047 49.8839V47.6504C4.26047 46.7697 3.9425 46.3322 3.30079 46.3322C3.13883 46.331 2.97871 46.3664 2.83251 46.4358C2.68961 46.4986 2.56305 46.5931 2.46251 46.7121C2.35433 46.8358 2.27005 46.9782 2.21391 47.1324C2.15517 47.3028 2.12585 47.4818 2.1272 47.662V49.8839H1.64157V46.0099H2.13298V46.6776C2.25743 46.4339 2.45063 46.2316 2.68888 46.0956C2.92714 45.9596 3.20008 45.8958 3.47422 45.912C3.65849 45.8983 3.84336 45.9288 4.01335 46.0009C4.18335 46.0731 4.33351 46.1847 4.45125 46.3265C4.6947 46.6747 4.81286 47.0946 4.78656 47.518V49.8839H4.26047ZM0.485325 49.8839V46.0099H0.97673V49.8839H0.485325ZM0.728137 45.0313C0.637583 45.0309 0.550642 44.9959 0.485325 44.9334C0.451285 44.9007 0.424455 44.8613 0.40654 44.8177C0.388625 44.7741 0.380017 44.7272 0.381263 44.6801C0.379804 44.6347 0.388366 44.5895 0.406345 44.5478C0.424325 44.506 0.451285 44.4687 0.485325 44.4384C0.550642 44.3759 0.637583 44.3409 0.728137 44.3405C0.773973 44.3318 0.821051 44.3318 0.866887 44.3405C0.90812 44.3553 0.94561 44.3789 0.97673 44.4096C1.00869 44.4421 1.03593 44.4789 1.05767 44.519C1.07677 44.5625 1.08663 44.6096 1.08663 44.6571C1.08663 44.7047 1.07677 44.7517 1.05767 44.7953C1.04306 44.8379 1.01708 44.8757 0.982511 44.9046C0.950181 44.938 0.910638 44.9636 0.866887 44.9795C0.826652 45.0057 0.78137 45.0234 0.733918 45.0313H0.728137Z" fill="url(#paint6_linear_3_469)"/>
<path d="M25.9177 36.7829H23.0213V38.8955H25.6864V40.4612H23.0213V43.7999H21.1655V35.2057H25.9177V36.7829Z" fill="url(#paint7_linear_3_469)"/>
<path d="M7.26742 43.2243C6.35679 43.7339 5.32239 43.983 4.27852 43.9439C3.70794 43.9716 3.13762 43.8839 2.60204 43.686C2.06645 43.4882 1.57672 43.1842 1.16243 42.7926C0.765769 42.3706 0.458869 41.8731 0.260173 41.33C0.0614765 40.787 -0.0249155 40.2095 0.00618706 39.6323C-0.0180385 39.0264 0.0799895 38.4218 0.294475 37.8543C0.508961 37.2868 0.83555 36.7678 1.25493 36.3282C1.68992 35.8975 2.21002 35.5616 2.78225 35.3416C3.35449 35.1216 3.96638 35.0224 4.57914 35.0502C5.36684 35.0347 6.1507 35.1635 6.89164 35.4302V37.2434C6.1878 36.8455 5.38823 36.6465 4.57914 36.6678C4.22911 36.6551 3.88047 36.718 3.55715 36.8522C3.23382 36.9863 2.94347 37.1885 2.70602 37.4449C2.20104 38.0215 1.93997 38.7704 1.97759 39.5345C1.93243 40.2737 2.16301 41.0034 2.62509 41.5837C2.84445 41.8222 3.11306 42.0104 3.41245 42.1356C3.71184 42.2608 4.03492 42.32 4.35946 42.3091C4.72238 42.3234 5.08391 42.2565 5.41742 42.1133V40.4497H3.77555V38.9013H7.24429L7.26742 43.2243Z" fill="url(#paint8_linear_3_469)"/>
<path d="M18.5061 40.4037L17.6216 37.5255C17.5515 37.2732 17.5051 37.015 17.4829 36.7541H17.4366C17.4189 37.008 17.3724 37.259 17.2979 37.5024L16.4018 40.4152L18.5061 40.4037ZM21.5297 43.7999H19.5236L18.9455 41.8888H16.0202L15.4421 43.7999H13.4302L16.4249 35.2057H18.6218L21.5297 43.7999Z" fill="url(#paint9_linear_3_469)"/>
<path d="M9.61459 36.6563V39.0509H10.4124C10.5887 39.0588 10.7648 39.0307 10.9299 38.9683C11.0949 38.906 11.2454 38.8107 11.3721 38.6883C11.4913 38.5702 11.5851 38.4291 11.6477 38.2737C11.7103 38.1184 11.7405 37.9519 11.7363 37.7845C11.7363 37.0304 11.3085 36.6332 10.4471 36.6332L9.61459 36.6563ZM14.6616 43.7999H12.5341L11.2565 41.5895C11.1563 41.4245 11.0638 41.2748 10.979 41.1405C10.9022 41.0185 10.8131 40.9047 10.713 40.8009C10.6312 40.7131 10.5355 40.6392 10.4297 40.5821C10.3324 40.5356 10.2256 40.512 10.1176 40.513H9.61459V43.7999H7.76459V35.2057H10.6957C12.696 35.2057 13.6904 35.9885 13.6904 37.5427C13.6952 37.8247 13.6502 38.1053 13.5574 38.3717C13.4737 38.6209 13.3487 38.8544 13.1874 39.0624C13.0243 39.2669 12.8291 39.4438 12.6093 39.5863C12.3759 39.7391 12.1205 39.8555 11.8519 39.9316C11.979 39.9755 12.0981 40.0397 12.2046 40.1216C12.3248 40.218 12.4369 40.3238 12.5399 40.4382C12.6497 40.5605 12.752 40.6893 12.8463 40.8239C12.9446 40.962 13.0313 41.1002 13.1122 41.2326L14.6616 43.7999Z" fill="url(#paint10_linear_3_469)"/>
<path d="M31.0688 36.7829H28.1724V38.8955H30.8375V40.4612H28.1724V43.7999H26.3166V35.2057H31.0688V36.7829Z" fill="url(#paint11_linear_3_469)"/>
<defs>
<linearGradient id="paint0_linear_3_469" x1="17.6405" y1="0.0413208" x2="17.6405" y2="30.8615" gradientUnits="userSpaceOnUse">
<stop stop-color="#D375FF"/>
<stop offset="1" stop-color="#798FFF"/>
</linearGradient>
<linearGradient id="paint1_linear_3_469" x1="18.7886" y1="0.0413818" x2="18.7886" y2="27.5269" gradientUnits="userSpaceOnUse">
<stop stop-color="#D375FF"/>
<stop offset="1" stop-color="#798FFF"/>
</linearGradient>
<linearGradient id="paint2_linear_3_469" x1="26.6658" y1="6.10352e-05" x2="26.6658" y2="9.3414" gradientUnits="userSpaceOnUse">
<stop stop-color="#D375FF"/>
<stop offset="1" stop-color="#798FFF"/>
</linearGradient>
<linearGradient id="paint3_linear_3_469" x1="26.6658" y1="6.10352e-05" x2="26.6658" y2="9.3414" gradientUnits="userSpaceOnUse">
<stop stop-color="#D375FF"/>
<stop offset="1" stop-color="#798FFF"/>
</linearGradient>
<linearGradient id="paint4_linear_3_469" x1="26.6658" y1="6.10352e-05" x2="26.6658" y2="9.3414" gradientUnits="userSpaceOnUse">
<stop stop-color="#D375FF"/>
<stop offset="1" stop-color="#798FFF"/>
</linearGradient>
<linearGradient id="paint5_linear_3_469" x1="28.0448" y1="6.10352e-05" x2="28.0448" y2="6.15168" gradientUnits="userSpaceOnUse">
<stop stop-color="#D375FF"/>
<stop offset="1" stop-color="#798FFF"/>
</linearGradient>
<linearGradient id="paint6_linear_3_469" x1="17.6389" y1="44.334" x2="17.6389" y2="49.9997" gradientUnits="userSpaceOnUse">
<stop stop-color="#D375FF"/>
<stop offset="1" stop-color="#798FFF"/>
</linearGradient>
<linearGradient id="paint7_linear_3_469" x1="17.6789" y1="35.0457" x2="17.6789" y2="43.9489" gradientUnits="userSpaceOnUse">
<stop stop-color="#D375FF"/>
<stop offset="1" stop-color="#798FFF"/>
</linearGradient>
<linearGradient id="paint8_linear_3_469" x1="17.6789" y1="35.0457" x2="17.6789" y2="43.9489" gradientUnits="userSpaceOnUse">
<stop stop-color="#D375FF"/>
<stop offset="1" stop-color="#798FFF"/>
</linearGradient>
<linearGradient id="paint9_linear_3_469" x1="17.6789" y1="35.0457" x2="17.6789" y2="43.9489" gradientUnits="userSpaceOnUse">
<stop stop-color="#D375FF"/>
<stop offset="1" stop-color="#798FFF"/>
</linearGradient>
<linearGradient id="paint10_linear_3_469" x1="17.6789" y1="35.0457" x2="17.6789" y2="43.9489" gradientUnits="userSpaceOnUse">
<stop stop-color="#D375FF"/>
<stop offset="1" stop-color="#798FFF"/>
</linearGradient>
<linearGradient id="paint11_linear_3_469" x1="17.6789" y1="35.0457" x2="17.6789" y2="43.9489" gradientUnits="userSpaceOnUse">
<stop stop-color="#D375FF"/>
<stop offset="1" stop-color="#798FFF"/>
</linearGradient>
</defs>
</svg>
