<svg width="214" height="214" viewBox="0 0 214 214" fill="none" xmlns="http://www.w3.org/2000/svg">
<path d="M106.999 213.662C165.906 213.662 213.66 165.908 213.66 107.001C213.66 48.0946 165.906 0.341125 106.999 0.341125C48.0924 0.341125 0.338943 48.0946 0.338943 107.001C0.338943 165.908 48.0924 213.662 106.999 213.662Z" fill="#E21A1A"/>
<path fill-rule="evenodd" clip-rule="evenodd" d="M117.862 121.553L113.315 100.138H100.764L90.815 120.017L90.3379 100.138H79.2819L70.5061 119.417L67.1766 100.138H56.033L44.5662 137.632H54.32L61.042 116.028L65.1748 137.632H71.2411L81.8667 114.99L81.9994 137.632H92.8981L96.4897 130.553H109.6L111.112 137.632H125.283L127.538 123.316L134.775 137.632H146.215L145.005 135.67C145.258 135.811 145.513 135.945 145.771 136.071C147.904 137.111 150.19 137.632 152.639 137.632C157.305 137.632 160.998 136.463 163.711 134.117C166.432 131.78 167.788 128.649 167.788 124.734C167.788 122.516 167.285 120.673 166.287 119.198C165.289 117.723 163.506 116.281 160.938 114.864C160.452 114.583 159.769 114.216 158.891 113.764C156.392 112.484 155.145 111.332 155.145 110.3C155.145 109.464 155.479 108.765 156.144 108.193C156.809 107.622 157.645 107.331 158.643 107.331C159.556 107.331 160.554 107.605 161.637 108.151C162.72 108.697 163.924 109.532 165.237 110.658L169.426 103.45C167.762 102.051 165.988 100.985 164.119 100.268C162.243 99.5522 160.289 99.1933 158.259 99.1933C154.412 99.1933 151.264 100.345 148.825 102.64C147.799 103.608 146.988 104.693 146.394 105.894C146.291 105.693 146.182 105.496 146.066 105.303C145.087 103.686 143.654 102.436 141.758 101.545C140.682 101.038 139.406 100.671 137.938 100.461C136.47 100.242 134.232 100.138 131.217 100.138H121.236L117.861 121.553H117.862ZM53.482 154.446C53.1005 155.252 52.6257 155.883 52.0573 156.347C51.5064 156.797 50.9658 157.149 50.4037 157.362C49.8465 157.572 49.3096 157.694 48.8136 157.741C48.3049 157.789 47.923 157.807 47.6434 157.813C47.5794 157.814 47.5033 157.833 47.4399 157.833C45.9514 157.825 44.7146 157.373 43.7509 156.479C42.7938 155.591 42.4556 154.262 42.7077 152.496C42.9259 150.966 43.5669 149.689 44.6538 148.689C45.7544 147.676 47.1852 147.183 48.9155 147.183C48.9789 147.183 49.0553 147.183 49.1316 147.183C50.7473 147.183 51.8888 147.566 52.5536 148.329C53.2243 149.099 53.6353 149.939 53.7875 150.854C53.8515 151.237 53.8639 151.613 53.8512 151.985C53.8386 152.352 53.8056 152.696 53.7622 153.012C53.7551 153.064 53.7433 153.114 53.737 153.163C53.7307 153.21 53.7241 153.255 53.7241 153.299C51.2052 153.299 48.6738 153.299 46.1549 153.299C46.142 153.335 46.1368 153.366 46.1294 153.399C46.1113 153.481 46.1167 153.563 46.1167 153.647C46.1167 153.731 46.0998 153.811 46.1038 153.894C46.1253 154.33 46.2683 154.734 46.5364 155.105C46.8026 155.473 47.2361 155.686 47.8593 155.68C48.3178 155.675 48.7237 155.534 49.0679 155.328C49.4104 155.123 49.6656 154.829 49.8183 154.446C49.8818 154.446 49.9581 154.446 50.0219 154.446C51.1668 154.446 52.3245 154.446 53.482 154.446V154.446ZM46.5109 151.35C47.7829 151.35 49.0679 151.35 50.3397 151.35C50.3908 150.854 50.2897 150.402 50.0345 149.991C49.781 149.584 49.3484 149.336 48.7116 149.336C48.1513 149.336 47.6727 149.576 47.274 149.963C46.8709 150.355 46.6125 150.814 46.5106 151.35H46.5109ZM59.9953 148.453C60.4024 148.058 60.8853 147.744 61.433 147.518C61.9793 147.293 62.565 147.183 63.2011 147.183C63.2519 147.183 63.328 147.183 63.4047 147.183C64.4987 147.183 65.2629 147.462 65.6691 148.022C66.0771 148.584 66.3007 149.201 66.369 149.871C66.4023 150.199 66.4196 150.519 66.3943 150.834C66.369 151.15 66.34 151.43 66.305 151.677C66.0346 153.608 65.7452 155.536 65.4782 157.465C65.4022 157.465 65.3258 157.465 65.2621 157.465C64.0661 157.465 62.8578 157.465 61.6747 157.465C61.9291 155.648 62.1966 153.826 62.4504 152.004C62.4636 151.909 62.4757 151.785 62.4886 151.633C62.5009 151.485 62.5159 151.333 62.5012 151.182C62.4777 150.938 62.4122 150.706 62.2724 150.494C62.1326 150.283 61.9044 150.135 61.5346 150.135C61.0127 150.135 60.5574 150.401 60.1607 150.834C59.7562 151.276 59.5156 151.853 59.4099 152.58C59.1725 154.21 58.9394 155.84 58.7103 157.465C58.634 157.465 58.5576 157.465 58.4942 157.465C57.2982 157.465 56.0899 157.465 54.9068 157.465C55.3776 154.162 55.8482 150.858 56.319 147.55C56.3827 147.55 56.4461 147.55 56.5225 147.55C57.7185 147.55 58.9139 147.55 60.1225 147.55C60.0717 147.854 60.0338 148.154 59.9953 148.453V148.453ZM80.2091 147.55C79.7512 150.762 79.2888 153.969 78.8355 157.178C78.64 158.559 78.0282 159.708 76.9781 160.645C75.942 161.57 74.4974 162.032 72.6532 162.04C72.5763 162.04 72.5005 162.059 72.4368 162.059C70.7829 162.052 69.5516 161.681 68.7604 160.973C67.9623 160.259 67.5521 159.351 67.5521 158.244C67.6032 158.252 67.6796 158.26 67.7556 158.265C69.0403 158.265 70.3382 158.265 71.6355 158.265C71.5973 158.632 71.711 158.921 71.9792 159.127C72.245 159.332 72.5513 159.444 72.9331 159.455C72.9839 159.456 73.0477 159.455 73.0855 159.455C73.1237 159.455 73.1734 159.439 73.2127 159.435C73.6316 159.388 74.0277 159.228 74.4213 158.943C74.8166 158.657 75.0598 158.065 75.1847 157.178C75.2122 156.982 75.2484 156.783 75.2737 156.583C74.765 156.95 74.2692 157.192 73.8236 157.302C73.379 157.412 72.9331 157.466 72.5008 157.466C72.4244 157.466 72.348 157.466 72.2972 157.466C70.809 157.466 69.6337 156.994 68.786 156.039C67.9422 155.089 67.6299 153.779 67.8699 152.109C68.1004 150.507 68.736 149.286 69.8037 148.445C70.873 147.604 72.0044 147.183 73.2127 147.183C73.2762 147.183 73.3399 147.183 73.4163 147.183C73.6451 147.183 73.8871 147.194 74.1541 147.223C74.4084 147.25 74.663 147.298 74.9174 147.367C75.2099 147.446 75.4916 147.56 75.7571 147.714C76.0132 147.863 76.2532 148.062 76.4441 148.309C76.4823 148.058 76.5205 147.806 76.5586 147.551C76.6221 147.551 76.6858 147.551 76.7622 147.551C77.9073 147.551 79.0648 147.551 80.2097 147.551L80.2091 147.55ZM73.5561 154.589C74.1159 154.563 74.6398 154.364 75.1336 153.986C75.6193 153.614 75.9213 153.043 76.0241 152.292C76.1119 151.649 76.0281 151.158 75.7824 150.834C75.532 150.504 75.2194 150.296 74.8663 150.179C74.7612 150.144 74.6493 150.11 74.5356 150.087C74.4331 150.066 74.3191 150.055 74.2049 150.055C74.1032 150.055 73.9629 150.066 73.8104 150.095C73.6706 150.122 73.534 150.179 73.3781 150.239C73.0376 150.371 72.6963 150.579 72.3733 150.906C72.0604 151.222 71.848 151.689 71.7624 152.292C71.6576 153.031 71.7859 153.589 72.1316 153.954C72.4853 154.328 72.9205 154.529 73.391 154.569C73.4166 154.585 73.4547 154.589 73.48 154.589C73.5056 154.589 73.5188 154.591 73.5561 154.589V154.589ZM82.7535 147.55C83.9495 147.55 85.1452 147.55 86.3535 147.55C85.883 150.858 85.4122 154.162 84.9414 157.465C84.865 157.465 84.7889 157.465 84.7378 157.465C83.5295 157.465 82.3209 157.465 81.1378 157.465C81.6087 154.162 82.0795 150.858 82.55 147.55C82.6134 147.55 82.6772 147.55 82.7535 147.55ZM82.8681 144.678C82.945 144.159 83.1879 143.717 83.6185 143.352C84.0402 142.994 84.4964 142.808 85.0054 142.808C85.0688 142.808 85.1452 142.808 85.2089 142.808C85.7432 142.808 86.154 142.985 86.468 143.344C86.7769 143.696 86.9027 144.143 86.824 144.678C86.7502 145.181 86.5071 145.622 86.0989 145.992C85.6929 146.361 85.221 146.544 84.687 146.544C84.6109 146.544 84.5343 146.544 84.4835 146.544C83.9871 146.544 83.6174 146.409 83.3639 146.136C83.1084 145.862 82.9519 145.56 82.8931 145.229C82.8758 145.132 82.8612 145.041 82.8549 144.946C82.8486 144.849 82.856 144.758 82.8678 144.678H82.8681ZM92.3325 148.453C92.7396 148.057 93.2224 147.744 93.7702 147.518C94.3162 147.293 94.9024 147.182 95.5383 147.182C95.6018 147.182 95.6781 147.182 95.7416 147.182C96.8356 147.182 97.5872 147.461 98.0061 148.022C98.4266 148.584 98.6589 149.2 98.7186 149.871C98.7476 150.198 98.7441 150.517 98.7186 150.834C98.6933 151.148 98.6781 151.429 98.6422 151.677C98.3606 153.606 98.0953 155.536 97.8154 157.465C97.7391 157.465 97.6756 157.465 97.6119 157.465C96.4033 157.465 95.2076 157.465 94.0119 157.465C94.2663 155.647 94.5338 153.826 94.7879 152.004C94.8008 151.908 94.8132 151.785 94.8261 151.633C94.8384 151.485 94.8485 151.333 94.839 151.181C94.8235 150.938 94.7451 150.709 94.6099 150.494C94.4781 150.285 94.2292 150.134 93.8847 150.134C93.3623 150.134 92.8843 150.391 92.4852 150.834C92.0957 151.266 91.8494 151.853 91.7477 152.579C91.5189 154.209 91.2769 155.839 91.0481 157.465C90.9717 157.465 90.9083 157.465 90.8446 157.465C89.636 157.465 88.4403 157.465 87.2446 157.465C87.7151 154.161 88.1859 150.858 88.6565 147.55C88.7202 147.55 88.7836 147.55 88.86 147.55C90.056 147.55 91.2643 147.55 92.46 147.55C92.4218 147.854 92.371 148.154 92.3328 148.453H92.3325ZM110.944 154.445C110.549 155.252 110.095 155.892 109.532 156.347C108.963 156.807 108.427 157.149 107.865 157.361C107.308 157.572 106.771 157.694 106.275 157.741C105.766 157.789 105.385 157.806 105.105 157.812C105.028 157.814 104.965 157.832 104.901 157.832C103.4 157.825 102.179 157.369 101.212 156.478C100.245 155.587 99.9037 154.261 100.156 152.495C100.375 150.966 101.018 149.691 102.115 148.688C103.219 147.678 104.634 147.182 106.377 147.182C106.44 147.182 106.504 147.182 106.581 147.182C108.196 147.182 109.347 147.568 110.015 148.329C110.695 149.102 111.097 149.939 111.249 150.854C111.313 151.237 111.312 151.612 111.3 151.984C111.288 152.351 111.278 152.696 111.224 153.011C111.215 153.063 111.205 153.113 111.199 153.163C111.192 153.21 111.186 153.254 111.186 153.299C108.654 153.299 106.135 153.299 103.617 153.299C103.604 153.335 103.598 153.365 103.591 153.398C103.573 153.481 103.579 153.562 103.579 153.646C103.579 153.73 103.575 153.809 103.579 153.893C103.6 154.328 103.734 154.73 103.998 155.104C104.256 155.469 104.698 155.686 105.309 155.679C105.78 155.674 106.186 155.534 106.53 155.328C106.872 155.122 107.128 154.828 107.28 154.445C107.344 154.445 107.408 154.445 107.484 154.445C108.641 154.445 109.799 154.445 110.944 154.445L110.944 154.445ZM103.972 151.349C105.244 151.349 106.529 151.349 107.801 151.349C107.852 150.854 107.733 150.404 107.483 149.991C107.238 149.586 106.797 149.336 106.173 149.336C105.613 149.336 105.134 149.575 104.735 149.963C104.332 150.354 104.073 150.814 103.972 151.349H103.972ZM123.334 154.445C122.939 155.252 122.467 155.885 121.909 156.347C121.361 156.8 120.805 157.149 120.243 157.361C119.685 157.572 119.148 157.693 118.653 157.741C118.156 157.789 117.762 157.806 117.495 157.812C117.431 157.814 117.355 157.832 117.291 157.832C115.803 157.825 114.554 157.372 113.59 156.478C112.632 155.59 112.282 154.261 112.534 152.495C112.752 150.966 113.411 149.695 114.505 148.688C115.599 147.682 117.024 147.182 118.754 147.182C118.818 147.182 118.894 147.182 118.958 147.182C120.573 147.182 121.731 147.562 122.405 148.329C123.079 149.096 123.474 149.939 123.626 150.854C123.69 151.237 123.703 151.613 123.69 151.984C123.677 152.352 123.668 152.696 123.614 153.011C123.605 153.063 123.595 153.113 123.588 153.163C123.582 153.21 123.576 153.254 123.576 153.299C121.057 153.299 118.525 153.299 116.007 153.299C115.994 153.335 115.997 153.367 115.994 153.398C115.984 153.483 115.962 153.562 115.955 153.646C115.949 153.73 115.951 153.81 115.955 153.893C115.977 154.329 116.116 154.736 116.375 155.104C116.637 155.475 117.075 155.686 117.698 155.679C118.17 155.674 118.575 155.534 118.919 155.328C119.262 155.122 119.517 154.828 119.657 154.445C119.721 154.445 119.797 154.445 119.861 154.445C121.019 154.445 122.176 154.445 123.334 154.445V154.445ZM116.363 151.349C117.635 151.349 118.907 151.349 120.179 151.349C120.23 150.854 120.131 150.393 119.887 149.991C119.634 149.574 119.187 149.336 118.564 149.336C117.991 149.336 117.509 149.573 117.113 149.963C116.72 150.351 116.464 150.814 116.363 151.349H116.363ZM129.682 148.577C129.885 148.345 130.138 148.142 130.381 147.982C130.634 147.815 130.891 147.688 131.132 147.59C131.362 147.497 131.59 147.427 131.831 147.386C132.06 147.348 132.277 147.326 132.468 147.326C132.531 147.326 132.607 147.326 132.671 147.326C132.722 147.326 132.786 147.325 132.875 147.335C132.938 147.341 133.002 147.347 133.091 147.347C133.116 147.359 133.154 147.367 133.18 147.367C133.205 147.367 133.231 147.362 133.269 147.367C133.321 147.373 133.396 147.393 133.46 147.399C133.523 147.404 133.561 147.407 133.587 147.407C133.434 148.461 133.282 149.515 133.129 150.566C133.066 150.566 132.989 150.566 132.926 150.566C132.887 150.539 132.85 150.516 132.824 150.506C132.774 150.488 132.722 150.478 132.684 150.467C132.595 150.438 132.518 150.423 132.429 150.415C132.353 150.407 132.264 150.4 132.15 150.403C131.475 150.416 130.934 150.578 130.547 150.866C130.145 151.165 129.851 151.488 129.643 151.841C129.457 152.159 129.307 152.447 129.249 152.723C129.192 152.994 129.157 153.167 129.148 153.235C128.941 154.644 128.753 156.055 128.55 157.465C128.473 157.465 128.409 157.465 128.346 157.465C127.15 157.465 125.942 157.465 124.746 157.465C125.217 154.162 125.687 150.858 126.158 147.55C126.209 147.55 126.285 147.55 126.361 147.55C127.519 147.55 128.664 147.55 129.822 147.55C129.771 147.894 129.732 148.237 129.682 148.577V148.577ZM135.088 147.55C136.271 147.55 137.48 147.55 138.675 147.55C138.205 150.858 137.734 154.161 137.264 157.465C137.2 157.465 137.124 157.465 137.06 157.465C135.864 157.465 134.655 157.465 133.46 157.465C133.931 154.161 134.401 150.858 134.872 147.55C134.935 147.55 135.011 147.55 135.088 147.55H135.088ZM135.203 144.678C135.269 144.157 135.533 143.714 135.953 143.351C136.372 142.99 136.844 142.808 137.34 142.808C137.403 142.808 137.467 142.808 137.544 142.808C138.065 142.808 138.489 142.985 138.803 143.344C139.112 143.696 139.219 144.142 139.146 144.678C139.079 145.181 138.852 145.619 138.434 145.992C138.026 146.357 137.556 146.543 137.022 146.543C136.946 146.543 136.869 146.543 136.819 146.543C136.335 146.543 135.965 146.408 135.699 146.136C135.431 145.862 135.297 145.56 135.228 145.229C135.208 145.132 135.19 145.042 135.19 144.945C135.19 144.85 135.193 144.757 135.203 144.678H135.203ZM144.667 148.453C145.087 148.057 145.559 147.748 146.117 147.518C146.653 147.297 147.237 147.182 147.873 147.182C147.924 147.182 148 147.182 148.076 147.182C149.171 147.182 149.931 147.464 150.341 148.021C150.757 148.587 150.981 149.201 151.041 149.871C151.07 150.201 151.092 150.518 151.066 150.833C151.041 151.149 151.013 151.429 150.977 151.676C150.695 153.605 150.43 155.535 150.15 157.465C150.074 157.465 149.997 157.465 149.946 157.465C148.738 157.465 147.53 157.465 146.346 157.465C146.601 155.647 146.869 153.825 147.122 152.004C147.136 151.908 147.148 151.784 147.161 151.632C147.173 151.483 147.188 151.333 147.174 151.181C147.15 150.937 147.08 150.709 146.944 150.494C146.813 150.285 146.576 150.134 146.219 150.134C145.697 150.134 145.23 150.4 144.833 150.833C144.429 151.275 144.185 151.852 144.082 152.579C143.854 154.209 143.612 155.839 143.383 157.465C143.307 157.465 143.23 157.465 143.179 157.465C141.971 157.465 140.763 157.465 139.579 157.465C140.05 154.161 140.521 150.857 140.991 147.55C141.055 147.55 141.119 147.55 141.195 147.55C142.39 147.55 143.587 147.55 144.795 147.55C144.757 147.853 144.706 148.153 144.667 148.453H144.667ZM164.906 147.55C164.448 150.761 163.986 153.969 163.533 157.177C163.337 158.559 162.705 159.714 161.662 160.645C160.619 161.576 159.169 162.031 157.325 162.039C157.248 162.039 157.172 162.059 157.121 162.059C155.455 162.051 154.233 161.683 153.432 160.972C152.631 160.261 152.224 159.35 152.224 158.244C152.275 158.252 152.351 158.26 152.427 158.264C153.712 158.264 155.01 158.264 156.32 158.264C156.282 158.631 156.393 158.923 156.651 159.127C156.914 159.335 157.236 159.444 157.605 159.454C157.655 159.456 157.719 159.454 157.77 159.454C157.808 159.454 157.845 159.44 157.897 159.434C158.316 159.389 158.71 159.225 159.093 158.943C159.486 158.654 159.732 158.064 159.856 157.177C159.884 156.982 159.92 156.782 159.945 156.582C159.436 156.95 158.94 157.19 158.495 157.301C158.063 157.41 157.605 157.465 157.172 157.465C157.096 157.465 157.02 157.465 156.969 157.465C155.48 157.465 154.305 156.994 153.458 156.039C152.614 155.088 152.302 153.778 152.542 152.108C152.772 150.507 153.42 149.285 154.488 148.445C155.557 147.603 156.676 147.182 157.897 147.182C157.948 147.182 158.025 147.182 158.101 147.182C158.317 147.182 158.559 147.195 158.826 147.222C159.093 147.25 159.348 147.299 159.589 147.366C159.882 147.447 160.162 147.562 160.429 147.714C160.696 147.865 160.925 148.061 161.129 148.309C161.167 148.057 161.192 147.806 161.23 147.55C161.294 147.55 161.37 147.55 161.434 147.55C162.591 147.55 163.749 147.55 164.907 147.55L164.906 147.55ZM158.228 154.588C158.788 154.562 159.322 154.361 159.805 153.986C160.289 153.61 160.599 153.043 160.709 152.292C160.802 151.649 160.717 151.164 160.454 150.833C160.196 150.509 159.905 150.293 159.551 150.179C159.434 150.141 159.334 150.109 159.22 150.086C159.105 150.065 158.991 150.055 158.877 150.055C158.775 150.055 158.636 150.07 158.508 150.095C158.343 150.126 158.205 150.177 158.05 150.239C157.721 150.369 157.374 150.585 157.057 150.906C156.738 151.228 156.52 151.688 156.434 152.292C156.329 153.03 156.454 153.591 156.803 153.954C157.167 154.331 157.592 154.529 158.075 154.569C158.101 154.585 158.126 154.589 158.152 154.589C158.177 154.589 158.216 154.589 158.228 154.589V154.588ZM33.0865 137.635C22.5952 112.37 25.8558 83.3474 41.4841 61.068L51.5061 74.1278C33.1878 90.2118 25.8914 115.378 33.0865 137.635ZM46.5896 54.5367C50.0506 50.5598 53.9577 46.8674 58.3027 43.5335C70.6115 34.0892 84.7915 28.7811 99.1748 27.3827L94.9739 59.3016C82.2259 58.4777 69.1666 61.699 57.8715 69.2386L46.5896 54.5367V54.5367ZM107.312 27.0055C131.204 27.116 154.794 37.8786 170.465 58.3023L138.733 82.6515L138.732 82.6495C129.525 70.6504 116.673 63.0983 102.923 60.348L107.312 27.0052V27.0055ZM141.264 129.602L137.084 122.826C140.334 122.301 142.887 120.99 144.739 118.901C145.471 118.077 146.058 117.176 146.501 116.197C146.587 116.324 146.677 116.448 146.771 116.569C147.837 117.951 149.808 119.392 152.7 120.894C152.861 120.971 153.083 121.09 153.373 121.244C156.333 122.788 157.809 124.229 157.809 125.56C157.809 126.541 157.442 127.326 156.708 127.932C155.975 128.528 154.994 128.827 153.765 128.827C152.281 128.827 150.839 128.451 149.449 127.71C148.058 126.959 146.6 125.765 145.064 124.118L141.264 129.602V129.602ZM128.484 117.284L130.048 107.426H131.533C133.71 107.426 135.3 107.784 136.288 108.51C137.275 109.235 137.774 110.406 137.774 112.005C137.774 113.719 137.241 115.021 136.183 115.93C135.126 116.83 133.613 117.284 131.63 117.284H128.484V117.284ZM108.168 122.214H100.249L105.77 110.3L108.168 122.214Z" fill="white"/>
</svg>
