<svg width="310" height="308" viewBox="0 0 310 308" fill="none" xmlns="http://www.w3.org/2000/svg">
<path fill-rule="evenodd" clip-rule="evenodd" d="M153.71 0C68.8185 0 0 68.9481 0 154C0 175.264 4.30156 195.521 12.0804 213.946L66.0233 106.456L22.4027 234.101L84.5923 115.758L36.5887 253.738L100.067 128.161L52.3307 269.758L112.962 139.53L70.1497 283.278C94.2047 298.917 122.899 308 153.71 308H156.29C187.101 308 215.795 298.917 239.85 283.278L197.038 139.53L257.669 269.758L209.933 128.161L273.411 253.738L225.408 115.758L287.597 234.101L243.977 106.456L297.92 213.946C305.698 195.521 310 175.264 310 154C310 68.9481 241.181 0 156.29 0H153.71ZM70.1497 34.1074L85.624 25.8389L155 212.156L224.376 25.8389L239.85 34.1074L155.565 213.673L159.9 225.315L155 214.876L150.1 225.315L154.435 213.673L70.1497 34.1074Z" fill="#298594"/>
</svg>
