<svg width="128" height="128" viewBox="0 0 128 128" fill="none" xmlns="http://www.w3.org/2000/svg">
<path d="M117.333 27.6267L56.48 88.5334L33.8666 65.92L41.3866 58.4L56.48 73.4934L109.813 20.16L117.333 27.6267ZM105.547 54.5067C106.24 57.5467 106.667 60.7467 106.667 64C106.667 87.5734 87.5733 106.667 64 106.667C40.4266 106.667 21.3333 87.5734 21.3333 64C21.3333 40.4267 40.4266 21.3334 64 21.3334C72.4266 21.3334 80.2133 23.7867 86.8266 28L94.5066 20.32C85.8666 14.24 75.36 10.6667 64 10.6667C34.56 10.6667 10.6666 34.56 10.6666 64C10.6666 93.44 34.56 117.333 64 117.333C93.44 117.333 117.333 93.44 117.333 64C117.333 57.6534 116.16 51.5734 114.133 45.92L105.547 54.5067Z" fill="#6DD58C"/>
</svg>
